<svg version="1.1" id="Layer_1" xmlns="http://www.w3.org/2000/svg" xmlns:xlink="http://www.w3.org/1999/xlink" x="0px" y="0px"
	 width="100%" viewBox="0 0 500 500" enable-background="new 0 0 500 500" xml:space="preserve">
<path fill="none" opacity="1.000000" stroke="none" 
	d="
M501.000000,413.000000 
	C501.000000,442.326935 501.000000,471.653900 501.000000,500.985626 
	C334.376038,500.990417 167.752060,500.990417 1.064049,500.990417 
	C1.064049,334.412354 1.064049,167.824692 1.064049,1.118513 
	C167.551270,1.118513 334.102661,1.118513 501.000000,1.118513 
	C501.000000,129.689789 501.000000,258.379883 500.618896,387.718262 
	C486.444336,390.673462 478.216125,387.290588 469.602661,377.360535 
	C462.497406,369.169220 460.991333,359.191254 460.968048,348.955688 
	C460.852783,298.314575 460.916626,247.673050 460.917328,197.031677 
	C460.917358,195.447449 460.917328,193.863235 460.917328,192.402222 
	C436.306488,192.402222 412.391296,192.402222 388.376892,192.402222 
	C388.376892,197.603333 388.376892,202.518921 388.376892,207.883484 
	C395.399750,207.883484 402.187561,207.878815 408.975372,207.884811 
	C415.642639,207.890717 418.098297,210.383530 418.137329,217.010635 
	C418.424500,265.764008 418.539124,314.519653 419.142914,363.269165 
	C419.325226,377.987701 424.579163,390.722595 435.695740,401.325592 
	C446.108734,411.257507 458.246826,415.702850 472.023041,416.834778 
	C481.913879,417.647522 491.567413,415.993866 501.000000,413.000000 
M198.999512,156.587967 
	C198.617676,151.654846 197.714218,146.696609 197.950500,141.793274 
	C198.699997,126.240326 206.838913,115.673042 220.526855,108.588463 
	C228.277374,104.576950 236.418213,104.646843 244.538300,104.817688 
	C253.425079,105.004654 262.970795,104.390320 271.027557,107.372261 
	C289.764832,114.307228 305.045746,126.025749 314.199371,144.833908 
	C321.065430,158.941849 325.173340,173.462280 325.218018,189.128021 
	C325.258148,203.198334 325.243225,203.105927 339.549347,202.914505 
	C342.789520,202.871140 343.897247,201.913788 343.890839,198.618271 
	C343.822693,163.455597 343.844940,128.292587 343.958832,93.130035 
	C343.969940,89.703850 342.609192,88.790855 339.472229,88.994171 
	C336.152679,89.209320 332.797211,89.234695 329.479614,89.012398 
	C326.227325,88.794472 324.959076,89.925377 325.117737,93.259720 
	C325.336487,97.856674 325.172577,102.471825 325.172577,108.420433 
	C320.385803,106.496719 316.559113,105.052055 312.807465,103.433556 
	C301.818176,98.692635 291.126343,93.061302 279.799408,89.370117 
	C271.368622,86.622726 262.121368,86.409096 253.254211,84.965897 
	C239.664215,82.753990 226.392822,84.607658 213.260056,88.043411 
	C201.466644,91.128769 191.046188,96.507240 181.133820,103.957687 
	C171.862839,110.926064 165.799652,119.480301 160.881516,129.490158 
	C153.706558,144.093353 152.216415,159.637772 154.356079,175.328018 
	C155.556656,184.131851 158.149155,193.132828 162.055145,201.092697 
	C168.372437,213.966522 177.739319,224.760284 189.634827,233.159531 
	C204.522659,243.671631 219.239044,254.427505 234.173615,264.871979 
	C239.439331,268.554565 245.322739,271.354340 250.585266,275.040924 
	C260.610474,282.063934 270.805756,288.944336 280.141541,296.819183 
	C287.395782,302.938171 293.915131,310.103546 299.892029,317.505554 
	C304.566254,323.294189 306.097595,330.545624 307.383362,338.104950 
	C308.927979,347.186249 308.848419,355.787323 306.362610,364.418243 
	C301.027863,382.940948 286.991058,392.611755 269.476288,395.749786 
	C251.397278,398.988922 232.860825,398.808319 215.312149,391.107086 
	C205.647385,386.865753 196.484268,381.777527 189.406464,373.897766 
	C184.425064,368.351929 180.467499,361.897949 175.892136,355.973511 
	C166.664719,344.025421 164.780701,329.739685 163.079071,315.475922 
	C162.442215,310.137543 162.975906,304.659546 162.975906,299.380066 
	C156.968002,299.380066 151.582520,299.380066 146.346878,299.380066 
	C146.346878,337.363037 146.346878,374.960846 146.346878,412.531250 
	C152.015396,412.531250 157.401627,412.531250 163.039917,412.531250 
	C163.039917,406.224457 163.039917,400.261993 163.039917,392.754242 
	C170.224304,395.513702 176.886414,397.578217 183.111435,400.556366 
	C201.642059,409.421753 221.193741,415.069580 241.499771,416.583832 
	C255.072540,417.595947 268.984680,416.499756 282.538849,414.750092 
	C303.185364,412.084900 321.525848,403.295227 336.894257,389.187347 
	C349.723785,377.410095 356.210358,362.242737 356.758453,344.919708 
	C357.060822,335.362976 356.775970,325.648010 355.348419,316.217438 
	C354.053497,307.662872 351.858093,298.938416 348.286865,291.096191 
	C339.981018,272.856842 324.700043,260.547241 308.906281,249.216232 
	C298.133362,241.487366 286.275177,235.289490 275.265533,227.868164 
	C256.548431,215.251419 238.340332,201.871384 219.485352,189.470428 
	C207.644592,181.682739 201.192200,171.108154 198.999512,156.587967 
z"/>
<path fill="#FCFCFC" opacity="1.000000" stroke="none" 
	d="
M501.000000,412.531372 
	C491.567413,415.993866 481.913879,417.647522 472.023041,416.834778 
	C458.246826,415.702850 446.108734,411.257507 435.695740,401.325592 
	C424.579163,390.722595 419.325226,377.987701 419.142914,363.269165 
	C418.539124,314.519653 418.424500,265.764008 418.137329,217.010635 
	C418.098297,210.383530 415.642639,207.890717 408.975372,207.884811 
	C402.187561,207.878815 395.399750,207.883484 388.376892,207.883484 
	C388.376892,202.518921 388.376892,197.603333 388.376892,192.402222 
	C412.391296,192.402222 436.306488,192.402222 460.917328,192.402222 
	C460.917328,193.863235 460.917358,195.447449 460.917328,197.031677 
	C460.916626,247.673050 460.852783,298.314575 460.968048,348.955688 
	C460.991333,359.191254 462.497406,369.169220 469.602661,377.360535 
	C478.216125,387.290588 486.444336,390.673462 500.618896,388.183258 
	C501.000000,396.020905 501.000000,404.041809 501.000000,412.531372 
z"/>
<path fill="#FDFCFC" opacity="1.000000" stroke="none" 
	d="
M198.996399,157.032715 
	C201.192200,171.108154 207.644592,181.682739 219.485352,189.470428 
	C238.340332,201.871384 256.548431,215.251419 275.265533,227.868164 
	C286.275177,235.289490 298.133362,241.487366 308.906281,249.216232 
	C324.700043,260.547241 339.981018,272.856842 348.286865,291.096191 
	C351.858093,298.938416 354.053497,307.662872 355.348419,316.217438 
	C356.775970,325.648010 357.060822,335.362976 356.758453,344.919708 
	C356.210358,362.242737 349.723785,377.410095 336.894257,389.187347 
	C321.525848,403.295227 303.185364,412.084900 282.538849,414.750092 
	C268.984680,416.499756 255.072540,417.595947 241.499771,416.583832 
	C221.193741,415.069580 201.642059,409.421753 183.111435,400.556366 
	C176.886414,397.578217 170.224304,395.513702 163.039917,392.754242 
	C163.039917,400.261993 163.039917,406.224457 163.039917,412.531250 
	C157.401627,412.531250 152.015396,412.531250 146.346878,412.531250 
	C146.346878,374.960846 146.346878,337.363037 146.346878,299.380066 
	C151.582520,299.380066 156.968002,299.380066 162.975906,299.380066 
	C162.975906,304.659546 162.442215,310.137543 163.079071,315.475922 
	C164.780701,329.739685 166.664719,344.025421 175.892136,355.973511 
	C180.467499,361.897949 184.425064,368.351929 189.406464,373.897766 
	C196.484268,381.777527 205.647385,386.865753 215.312149,391.107086 
	C232.860825,398.808319 251.397278,398.988922 269.476288,395.749786 
	C286.991058,392.611755 301.027863,382.940948 306.362610,364.418243 
	C308.848419,355.787323 308.927979,347.186249 307.383362,338.104950 
	C306.097595,330.545624 304.566254,323.294189 299.892029,317.505554 
	C293.915131,310.103546 287.395782,302.938171 280.141541,296.819183 
	C270.805756,288.944336 260.610474,282.063934 250.585266,275.040924 
	C245.322739,271.354340 239.439331,268.554565 234.173615,264.871979 
	C219.239044,254.427505 204.522659,243.671631 189.634827,233.159531 
	C177.739319,224.760284 168.372437,213.966522 162.055145,201.092697 
	C158.149155,193.132828 155.556656,184.131851 154.356079,175.328018 
	C152.216415,159.637772 153.706558,144.093353 160.881516,129.490158 
	C165.799652,119.480301 171.862839,110.926064 181.133820,103.957687 
	C191.046188,96.507240 201.466644,91.128769 213.260056,88.043411 
	C226.392822,84.607658 239.664215,82.753990 253.254211,84.965897 
	C262.121368,86.409096 271.368622,86.622726 279.799408,89.370117 
	C291.126343,93.061302 301.818176,98.692635 312.807465,103.433556 
	C316.559113,105.052055 320.385803,106.496719 325.172577,108.420433 
	C325.172577,102.471825 325.336487,97.856674 325.117737,93.259720 
	C324.959076,89.925377 326.227325,88.794472 329.479614,89.012398 
	C332.797211,89.234695 336.152679,89.209320 339.472229,88.994171 
	C342.609192,88.790855 343.969940,89.703850 343.958832,93.130035 
	C343.844940,128.292587 343.822693,163.455597 343.890839,198.618271 
	C343.897247,201.913788 342.789520,202.871140 339.549347,202.914505 
	C325.243225,203.105927 325.258148,203.198334 325.218018,189.128021 
	C325.173340,173.462280 321.065430,158.941849 314.199371,144.833908 
	C305.045746,126.025749 289.764832,114.307228 271.027557,107.372261 
	C262.970795,104.390320 253.425079,105.004654 244.538300,104.817688 
	C236.418213,104.646843 228.277374,104.576950 220.526855,108.588463 
	C206.838913,115.673042 198.699997,126.240326 197.950500,141.793274 
	C197.714218,146.696609 198.617676,151.654846 198.996399,157.032715 
z"/>
</svg>