<svg version="1.1" id="Layer_1" xmlns="http://www.w3.org/2000/svg" xmlns:xlink="http://www.w3.org/1999/xlink" x="0px" y="0px"
	 width="50" height="50" viewBox="0 0 544 544" enable-background="new 0 0 544 544" xml:space="preserve">
<path fill="#FFFFFF" opacity="1.000000" stroke="none" 
	d="
M274.237244,64.000000 
	C274.269043,99.659904 274.249329,134.819962 274.354401,169.979645 
	C274.402435,186.060211 281.648254,198.393875 294.758301,207.356186 
	C310.595306,218.182739 327.633118,227.002304 344.218872,236.571854 
	C365.561920,248.886261 387.180206,260.732239 408.362823,273.313904 
	C434.190582,288.654602 452.179047,310.762878 460.578918,339.644226 
	C468.149872,365.675415 466.604950,391.470581 455.176697,416.529419 
	C441.862061,445.724518 420.835297,467.156677 392.406616,481.788300 
	C377.937866,489.235046 362.815247,494.453583 346.871429,497.377686 
	C341.883911,498.292419 340.957092,496.843628 341.249664,491.742767 
	C341.668823,484.434326 341.693634,477.090576 341.554474,469.768188 
	C341.484039,466.060455 342.921936,464.421234 346.481079,463.661774 
	C377.511475,457.040009 402.480652,441.261475 419.694824,414.244598 
	C426.202576,404.030945 429.302826,392.709625 431.400940,380.629181 
	C435.579590,356.569275 427.187195,336.747925 413.302185,318.460785 
	C405.203491,307.794525 393.618988,301.169647 382.138580,294.648132 
	C350.144531,276.473602 318.190582,258.228180 286.157867,240.122040 
	C267.428070,229.535233 252.491272,215.667313 245.837204,194.496475 
	C244.048264,188.804718 243.393005,183.035339 243.414780,176.907440 
	C243.504684,151.602020 244.800415,126.268394 242.761719,100.988228 
	C242.299393,95.255241 243.896133,89.727997 243.702316,84.063011 
	C243.105316,66.614105 242.507385,49.165226 241.899323,31.716705 
	C241.781754,28.343105 243.123474,26.237978 246.730469,26.202085 
	C254.560776,26.124166 262.391602,26.090473 270.222321,26.064276 
	C273.561768,26.053102 274.298065,28.059578 274.273865,31.004478 
	C274.184906,41.835686 274.237396,52.668060 274.237244,64.000000 
z"/>
<path fill="#FFFFFF" opacity="1.000000" stroke="none" 
	d="
M106.902496,192.376831 
	C107.377357,189.127335 107.383995,186.338684 107.236603,183.487152 
	C106.515175,169.530685 110.489487,156.456329 115.684021,143.809448 
	C124.873016,121.437447 139.316971,102.948776 158.719406,88.480247 
	C175.456604,75.999207 194.088547,67.407127 214.368820,62.471195 
	C218.390488,61.492371 222.184113,59.715584 226.460876,59.539684 
	C229.828140,59.401196 231.410919,60.236950 231.335175,63.883919 
	C231.176010,71.546677 231.264664,79.215065 231.290863,86.881004 
	C231.304184,90.782463 229.702148,92.556564 225.588272,93.529610 
	C190.453674,101.839851 162.324799,120.008224 146.618271,153.512192 
	C139.800659,168.054977 137.994080,183.837387 140.010788,200.265656 
	C142.397079,219.704803 150.884308,235.366959 165.171234,248.142151 
	C174.804489,256.756042 186.498199,262.309937 197.607208,268.680969 
	C211.472122,276.632568 225.679184,284.009186 239.335480,292.298035 
	C261.355927,305.663696 274.158142,324.904877 274.249603,351.315155 
	C274.343658,378.478271 274.084808,405.642456 274.076447,432.806183 
	C274.075134,437.000580 272.245117,439.016785 268.145874,439.015289 
	C261.314850,439.012848 254.483414,438.983093 247.652908,438.901062 
	C243.927429,438.856323 242.534653,437.008820 242.554642,433.176697 
	C242.689514,407.345123 242.178085,381.501556 242.801895,355.684265 
	C243.187775,339.714081 236.003036,328.520508 223.516739,320.204773 
	C208.818573,310.415863 192.924088,302.629272 177.527542,294.013062 
	C158.994461,283.641602 140.895493,272.813721 128.147766,255.066498 
	C118.074257,241.042328 111.078804,225.871292 108.373665,208.652771 
	C107.541626,203.356720 107.206795,198.122711 106.902496,192.376831 
z"/>
<path fill="#FFFFFF" opacity="1.000000" stroke="none" 
	d="
M287.214294,298.776642 
	C278.101196,290.701416 267.077850,286.518433 257.003174,280.743713 
	C253.402634,278.679901 249.668427,276.850647 246.033051,274.845734 
	C243.626144,273.518372 242.617874,271.424347 242.631775,268.645935 
	C242.677612,259.485748 242.669998,250.324310 242.561920,241.164795 
	C242.516296,237.297867 244.307159,236.647079 247.201431,238.438065 
	C264.901489,249.390991 284.204437,257.526184 301.503357,269.149292 
	C318.872711,280.819733 327.933563,297.377197 330.487549,318.116516 
	C331.546844,326.718506 330.110168,335.032990 330.110352,343.480927 
	C330.111115,378.625397 329.639893,413.777405 330.240387,448.911346 
	C330.575928,468.540863 329.609192,488.145325 330.161804,507.759888 
	C330.264832,511.417053 330.152435,515.065002 330.752838,518.716370 
	C331.828156,525.255981 330.371429,526.954712 323.866455,527.034058 
	C317.704620,527.109192 311.541260,527.083435 305.378632,527.069031 
	C299.386597,527.055054 298.791016,526.517151 298.778748,520.521423 
	C298.723572,493.538727 298.699524,466.556000 298.688385,439.573273 
	C298.672760,401.597321 298.482910,363.619751 298.798950,325.646454 
	C298.889069,314.815582 295.031372,306.286194 287.214294,298.776642 
z"/>
<path fill="#FFFFFF" opacity="1.000000" stroke="none" 
	d="
M407.218628,83.747498 
	C437.378082,104.494957 457.379181,131.881882 463.709229,167.920425 
	C468.068909,192.741241 463.349731,216.228363 449.226105,237.462982 
	C447.848511,239.534164 446.234283,241.468399 444.570770,243.323547 
	C442.681366,245.430649 440.616119,245.619934 438.615875,243.350769 
	C433.076385,237.066574 426.943909,231.506546 419.687683,227.201660 
	C416.037384,225.036072 417.756561,222.476532 419.714142,220.148132 
	C426.189575,212.446045 429.978973,203.686569 431.652710,193.678329 
	C434.081848,179.153198 431.744659,165.470764 425.484711,152.461929 
	C412.143646,124.737679 390.312988,106.759865 361.352783,96.735931 
	C345.432495,91.225479 329.179993,90.594505 312.658508,90.946251 
	C299.633911,91.223557 299.662506,91.049576 299.618958,78.087311 
	C299.604462,73.768883 299.776703,69.461998 299.092102,65.129463 
	C298.679138,62.516037 299.093201,59.579479 303.051697,59.665272 
	C317.696136,59.982677 332.396484,58.511177 346.981415,60.517231 
	C368.724854,63.507893 388.727386,71.217598 407.218628,83.747498 
z"/>
<path fill="#FFFFFF" opacity="1.000000" stroke="none" 
	d="
M107.121063,372.721130 
	C107.758308,352.697815 111.764771,334.060272 122.442787,317.273865 
	C125.856850,311.906738 127.874306,311.731842 131.765381,316.508179 
	C136.406662,322.205444 141.538849,327.426910 147.362503,331.918640 
	C150.930679,334.670654 152.126190,337.091858 148.796921,341.348633 
	C139.380966,353.387939 138.754776,367.777283 140.877686,381.867126 
	C145.523621,412.702393 163.770355,434.408936 189.986618,449.822113 
	C207.183060,459.932281 225.733932,465.607452 246.003052,464.653168 
	C253.481552,464.301056 261.001953,464.810089 268.476868,464.420441 
	C273.303009,464.168854 275.095154,466.691193 274.851654,470.623840 
	C274.428864,477.452271 274.341949,484.231354 274.813110,491.058777 
	C275.086090,495.014954 273.045166,497.183807 268.761810,497.159027 
	C255.439713,497.082001 241.993546,498.285645 228.828049,496.854034 
	C215.084671,495.359589 201.557755,491.569061 188.843292,485.637024 
	C164.514633,474.286316 144.106125,458.142883 128.823425,435.931305 
	C119.016785,421.678589 111.409424,406.394714 109.014496,388.978455 
	C108.291656,383.721802 107.760056,378.438843 107.121063,372.721130 
z"/>
<path fill="#FFFFFF" opacity="1.000000" stroke="none" 
	d="
M330.106812,177.999878 
	C330.116577,184.655441 330.175568,190.811615 330.109894,196.966461 
	C330.059662,201.674850 328.786072,202.709625 324.268677,201.180573 
	C311.537445,196.871292 304.364929,187.537201 300.569458,174.966782 
	C298.575897,168.364090 299.535065,161.793243 299.574768,155.180084 
	C299.637726,144.699081 299.733337,134.215897 299.579712,123.737099 
	C299.514069,119.258652 301.228271,117.388397 305.763031,117.555389 
	C311.741486,117.775551 317.735840,117.695312 323.720215,117.580963 
	C328.278717,117.493866 330.257904,119.248604 330.201416,124.096176 
	C329.994019,141.895386 330.108887,159.698349 330.106812,177.999878 
z"/>
</svg>