<?xml version="1.0" standalone="no"?>
<!DOCTYPE svg PUBLIC "-//W3C//DTD SVG 20010904//EN"
 "http://www.w3.org/TR/2001/REC-SVG-20010904/DTD/svg10.dtd">
<svg version="1.0" xmlns="http://www.w3.org/2000/svg"
 width="1024.000000pt" height="1024.000000pt" viewBox="0 0 1024.000000 1024.000000"
 preserveAspectRatio="xMidYMid meet">

<g transform="translate(0.000000,1024.000000) scale(0.100000,-0.100000)"
fill="#000000" stroke="none">
<path d="M0 5120 l0 -5120 5120 0 5120 0 0 5120 0 5120 -5120 0 -5120 0 0
-5120z m5062 1493 c3 -742 3 -749 25 -813 28 -81 79 -157 138 -207 63 -52 165
-113 719 -430 265 -151 510 -295 545 -320 425 -303 591 -837 406 -1304 -74
-187 -130 -274 -279 -434 -135 -146 -323 -265 -550 -350 -87 -32 -246 -74
-283 -75 -10 0 -13 37 -13 153 l0 153 71 12 c80 14 226 68 308 114 259 145
454 394 506 643 20 99 20 290 -1 374 -21 88 -92 230 -156 315 -78 104 -182
178 -497 357 -647 368 -849 484 -904 521 -114 78 -208 189 -263 315 -53 120
-54 134 -54 959 l0 764 140 0 139 0 3 -747z m-432 267 l0 -150 -27 -6 c-101
-22 -188 -50 -258 -83 -307 -144 -533 -391 -597 -651 -19 -79 -23 -122 -23
-255 0 -140 3 -169 23 -235 36 -113 88 -203 165 -286 103 -111 116 -119 607
-394 91 -51 197 -113 235 -138 145 -93 244 -229 285 -388 19 -72 20 -112 20
-551 l0 -473 -140 0 -139 0 -3 468 -3 467 -27 57 c-32 68 -102 147 -178 198
-30 20 -167 99 -305 175 -397 220 -487 284 -611 439 -264 328 -306 800 -107
1201 158 317 437 554 808 685 79 28 227 67 263 69 9 1 12 -35 12 -149z m1311
112 c473 -126 831 -444 974 -866 70 -207 75 -425 13 -616 -28 -87 -81 -193
-130 -258 l-40 -54 -71 69 c-40 38 -93 84 -120 102 l-47 32 30 32 c40 43 95
149 111 217 19 82 15 250 -9 341 -68 258 -282 507 -546 634 -195 94 -295 114
-568 115 l-198 0 0 146 0 146 243 -4 c230 -5 248 -7 358 -36z m-311 -953 l0
-411 -27 7 c-45 10 -133 67 -169 109 -80 92 -94 165 -94 473 l0 233 145 0 145
0 0 -411z m-773 -828 c37 -21 149 -82 247 -135 99 -54 212 -120 252 -147 125
-87 214 -219 255 -377 18 -72 19 -121 19 -1119 l0 -1043 -143 0 -143 0 -1
1033 0 1032 -22 58 c-28 71 -86 146 -146 187 -25 17 -123 73 -218 125 l-172
93 -3 166 c-1 91 -1 166 2 166 2 0 35 -17 73 -39z m-1058 -903 l43 -35 -35
-46 c-110 -144 -110 -444 0 -660 95 -188 278 -369 473 -467 177 -89 328 -120
591 -120 l189 0 0 -144 0 -143 -96 -7 c-219 -16 -467 15 -644 81 -128 48 -188
79 -315 164 -244 163 -439 416 -525 680 -39 119 -54 239 -47 379 9 171 44 288
134 449 l35 63 77 -79 c42 -44 96 -96 120 -115z"/>
</g>
</svg>
